<svg xmlns="http://www.w3.org/2000/svg" width="26.915" height="23.551" viewBox="0 0 26.915 23.551"><defs><style>.a{fill:#fff;}</style></defs><path class="a" d="M.961,64.326H25.954a.961.961,0,0,0,.961-.961v-2.4A.961.961,0,0,0,25.954,60H.961A.961.961,0,0,0,0,60.961v2.4A.961.961,0,0,0,.961,64.326Zm0,9.613H25.954a.961.961,0,0,0,.961-.961v-2.4a.961.961,0,0,0-.961-.961H.961A.961.961,0,0,0,0,70.574v2.4A.961.961,0,0,0,.961,73.938Zm0,9.613H25.954a.961.961,0,0,0,.961-.961v-2.4a.961.961,0,0,0-.961-.961H.961A.961.961,0,0,0,0,80.186v2.4A.961.961,0,0,0,.961,83.551Z" transform="translate(0 -60)"/></svg>