<svg xmlns="http://www.w3.org/2000/svg" width="23.753" height="23.747" viewBox="0 0 23.753 23.747"><path d="M11.8,37.61A6.089,6.089,0,1,0,17.893,43.7,6.079,6.079,0,0,0,11.8,37.61Zm0,10.047A3.958,3.958,0,1,1,15.762,43.7,3.966,3.966,0,0,1,11.8,47.657Zm7.758-10.3a1.42,1.42,0,1,1-1.42-1.42A1.417,1.417,0,0,1,19.562,37.361ZM23.594,38.8a7.028,7.028,0,0,0-1.918-4.976A7.074,7.074,0,0,0,16.7,31.908c-1.961-.111-7.837-.111-9.8,0a7.064,7.064,0,0,0-4.976,1.913A7.051,7.051,0,0,0,.008,38.8c-.111,1.961-.111,7.837,0,9.8a7.028,7.028,0,0,0,1.918,4.976A7.083,7.083,0,0,0,6.9,55.489c1.961.111,7.837.111,9.8,0a7.028,7.028,0,0,0,4.976-1.918A7.074,7.074,0,0,0,23.594,48.6c.111-1.961.111-7.832,0-9.793ZM21.061,50.7A4.007,4.007,0,0,1,18.8,52.956c-1.563.62-5.273.477-7,.477s-5.442.138-7-.477A4.008,4.008,0,0,1,2.547,50.7c-.62-1.563-.477-5.273-.477-7s-.138-5.442.477-7A4.007,4.007,0,0,1,4.8,34.441c1.563-.62,5.273-.477,7-.477s5.442-.138,7,.477A4.007,4.007,0,0,1,21.061,36.7c.62,1.563.477,5.272.477,7S21.681,49.141,21.061,50.7Z" transform="translate(0.075 -31.825)"/></svg>