<svg xmlns="http://www.w3.org/2000/svg" width="28.604" height="28.598" viewBox="0 0 28.604 28.598"><defs><style>.a{fill:#fff;}</style></defs><path class="a" d="M14.23,38.792a7.332,7.332,0,1,0,7.332,7.332A7.321,7.321,0,0,0,14.23,38.792Zm0,12.1A4.767,4.767,0,1,1,19,46.124,4.775,4.775,0,0,1,14.23,50.891Zm9.342-12.4a1.71,1.71,0,1,1-1.71-1.71A1.706,1.706,0,0,1,23.572,38.492Zm4.856,1.736a8.463,8.463,0,0,0-2.31-5.992,8.519,8.519,0,0,0-5.992-2.31c-2.361-.134-9.438-.134-11.8,0a8.507,8.507,0,0,0-5.992,2.3,8.491,8.491,0,0,0-2.31,5.992c-.134,2.361-.134,9.438,0,11.8a8.463,8.463,0,0,0,2.31,5.992,8.53,8.53,0,0,0,5.992,2.31c2.361.134,9.438.134,11.8,0a8.463,8.463,0,0,0,5.992-2.31,8.519,8.519,0,0,0,2.31-5.992c.134-2.361.134-9.432,0-11.793Zm-3.05,14.326a4.826,4.826,0,0,1-2.718,2.718c-1.882.747-6.349.574-8.43.574s-6.554.166-8.43-.574a4.826,4.826,0,0,1-2.718-2.718c-.747-1.882-.574-6.349-.574-8.43s-.166-6.554.574-8.43A4.826,4.826,0,0,1,5.8,34.976c1.882-.747,6.349-.574,8.43-.574s6.554-.166,8.43.574a4.826,4.826,0,0,1,2.718,2.718c.747,1.882.574,6.349.574,8.43S26.125,52.678,25.378,54.554Z" transform="translate(0.075 -31.825)"/></svg>