<svg xmlns="http://www.w3.org/2000/svg" width="43.705" height="30.73" viewBox="0 0 43.705 30.73"><defs><style>.a{fill:#fff;}</style></defs><path class="a" d="M57.724,68.808a5.492,5.492,0,0,0-3.864-3.889C50.452,64,36.785,64,36.785,64s-13.667,0-17.075.919a5.492,5.492,0,0,0-3.864,3.889c-.913,3.43-.913,10.588-.913,10.588s0,7.157.913,10.588a5.41,5.41,0,0,0,3.864,3.827c3.408.919,17.075.919,17.075.919s13.667,0,17.075-.919a5.41,5.41,0,0,0,3.864-3.827c.913-3.43.913-10.588.913-10.588S58.638,72.239,57.724,68.808ZM32.315,85.894v-13l11.423,6.5Z" transform="translate(-14.933 -64)"/></svg>