<svg xmlns="http://www.w3.org/2000/svg" width="36.292" height="25.518" viewBox="0 0 36.292 25.518"><path d="M50.467,67.993a4.56,4.56,0,0,0-3.209-3.229C44.428,64,33.079,64,33.079,64S21.73,64,18.9,64.763a4.56,4.56,0,0,0-3.209,3.229c-.758,2.849-.758,8.792-.758,8.792s0,5.943.758,8.792A4.492,4.492,0,0,0,18.9,88.755c2.83.763,14.179.763,14.179.763s11.349,0,14.179-.763a4.492,4.492,0,0,0,3.209-3.178c.758-2.849.758-8.792.758-8.792S51.225,70.841,50.467,67.993Zm-21.1,14.188V71.389l9.485,5.4Z" transform="translate(-14.933 -64)"/></svg>